<svg version="1.1" xmlns="http://www.w3.org/2000/svg" xmlns:xlink="http://www.w3.org/1999/xlink" height="100%" width="100%">

    <symbol id="paw" viewBox="0 0 512 512">
        <path d="M290.59 192c-20.18 0-106.82 1.98-162.59 85.95V192c0-52.94-43.06-96-96-96-17.67 0-32 14.33-32 32s14.33 32 32 32c17.64 0 32 14.36 32 32v256c0 35.3 28.7 64 64 64h176c8.84 0 16-7.16 16-16v-16c0-17.67-14.33-32-32-32h-32l128-96v144c0 8.84 7.16 16 16 16h32c8.84 0 16-7.16 16-16V289.86c-10.29 2.67-20.89 4.54-32 4.54-61.81 0-113.52-44.05-125.41-102.4zM448 96h-64l-64-64v134.4c0 53.02 42.98 96 96 96s96-42.98 96-96V32l-64 64zm-72 80c-8.84 0-16-7.16-16-16s7.16-16 16-16 16 7.16 16 16-7.16 16-16 16zm80 0c-8.84 0-16-7.16-16-16s7.16-16 16-16 16 7.16 16 16-7.16 16-16 16z"/>
    </symbol>
    
    <symbol id="empty">
        <path d="M16 8C16 10.1369 15.1678 12.1458 13.6569 13.6569C12.1458 15.1678 10.1369 16 8 16C6.50409 16 5.07116 15.5917 3.82756 14.8287L4.74475 13.9115C5.71069 14.4455 6.82037 14.75 8 14.75C11.722 14.75 14.75 11.722 14.75 8C14.75 6.82037 14.4455 5.71069 13.9115 4.74478L14.8287 3.82759C15.5917 5.07116 16 6.50409 16 8ZM0.910688 15.9732L0.0268125 15.0893L1.91831 13.1978C0.677094 11.7502 0 9.92716 0 8C0 5.86312 0.832156 3.85416 2.34313 2.34313C3.85416 0.832156 5.86312 0 8 0C9.92716 0 11.7502 0.677094 13.1978 1.91831L15.0893 0.0268125L15.9732 0.910688L0.910688 15.9732ZM2.80791 12.3082L12.3082 2.80791C11.1385 1.83559 9.63641 1.25 8 1.25C4.27803 1.25 1.25 4.27803 1.25 8C1.25 9.63641 1.83556 11.1385 2.80791 12.3082Z"/>
    </symbol>

    <symbol id="bad">
        <path d="M15.9954 3.3624C15.903 1.47693 14.4576 0 12.7047 0H3.29498C1.54228 0 0.0970314 1.47693 0.00468751 3.36237C0.0015625 3.4248 0 10.3773 0 10.3773C0 11.2721 0.675001 12 1.50469 12H14.495C15.3248 12 16 11.2721 16 10.3773C16 10.3773 15.9985 3.42517 15.9954 3.3624ZM3.29498 0.750004H12.7047C13.9626 0.750004 15.0197 1.71375 15.2554 3.00713H14.5399C14.3158 2.12209 13.5737 1.49987 12.7049 1.49987H8.14773C7.95567 1.49987 8.49555 1.66779 8.49555 1.87486C8.49555 2.08193 7.95567 2.24984 8.14773 2.24984H12.7049C13.1885 2.24984 13.6103 2.5535 13.8027 3.00709H13.4564C12.5889 3.00709 11.8775 3.7413 11.8288 4.66366C10.613 4.2499 9.30636 4.04297 7.99992 4.04297C6.69345 4.04297 5.38698 4.24987 4.17129 4.66363C4.1226 3.74129 3.41104 3.00709 2.54335 3.00709H2.1971C2.38941 2.55354 2.81129 2.24984 3.29491 2.24984H8.14773C8.3398 2.24984 8.49555 2.08193 8.49555 1.87486C8.49555 1.66779 8.3398 1.49987 8.14773 1.49987H3.29491C2.4261 1.49987 1.68394 2.12209 1.45988 3.00713H0.744658C0.980283 1.71375 2.03729 0.750004 3.29498 0.750004ZM11.8261 5.45181V6.72524C11.8261 7.28085 11.4067 7.73285 10.8911 7.73285H5.10854C4.5932 7.73285 4.17395 7.28081 4.17395 6.72524V5.45181C6.58804 4.57165 9.41174 4.57165 11.8261 5.45181ZM15.3044 10.3773C15.3044 10.8585 14.9413 11.25 14.495 11.25H1.50469C1.05856 11.25 0.695658 10.8585 0.695658 10.3773V10.1235V9.74847V9.37349V3.75713H2.54332C3.05888 3.75713 3.47829 4.20917 3.47829 4.7647V6.72521C3.47829 7.69441 4.20963 8.48282 5.10854 8.48282H11.4286C11.8288 8.48282 12.5217 8.00893 12.5217 6.72524V4.76474C12.5217 4.20917 12.941 3.75716 13.4563 3.75716H15.3043L15.3044 10.3773Z"/>
    </symbol>

    <symbol id="claw">
        <path d="M13.2277 13.6119H8.89656V2.38817H10.591V6.82783C10.0818 6.94627 9.69958 7.42672 9.69958 8.00003C9.69958 8.66196 10.2089 9.20049 10.8351 9.20049C11.4611 9.20049 11.9705 8.66199 11.9705 8.00003C11.9705 7.42672 11.5883 6.94627 11.0792 6.82783V2.38817H12.5675C12.9933 2.38817 13.3398 2.02189 13.3398 1.57169V0.816485C13.3398 0.366281 12.9933 0 12.5674 0H1.43256C1.00673 0 0.660269 0.366281 0.660269 0.816485V1.57165C0.660269 2.02189 1.00673 2.38814 1.43256 2.38814H5.10344V13.6119H0.772294C0.346457 13.6119 0 13.9781 0 14.4283V15.1835C0 15.6338 0.346457 16 0.772294 16H13.2277C13.6536 16 14 15.6337 14 15.1835V14.4283C14 13.9781 13.6536 13.6119 13.2277 13.6119ZM11.4823 8.00003C11.4823 8.37736 11.1919 8.68436 10.835 8.68436C10.4781 8.68436 10.1877 8.37736 10.1877 8.00003C10.1877 7.62271 10.4781 7.31571 10.835 7.31571C11.1919 7.31571 11.4823 7.62271 11.4823 8.00003ZM1.43256 1.57169V0.816485C1.43256 0.650876 1.67148 0.59375 1.82812 0.59375H12.4034C12.56 0.59375 12.6875 0.650876 12.6875 0.816485V1.57165C12.6875 1.73726 12.56 1.78125 12.4034 1.78125H1.82812C1.67148 1.78128 1.43256 1.7373 1.43256 1.57169ZM5.73438 11.78H6.00781C6.00781 11.78 6.2519 11.6645 6.2519 11.522C6.2519 11.3794 6.14261 11.2639 6.00781 11.2639H5.73438V9.43209H8.30999C8.44483 9.43209 9.26954 9.28545 8.62165 9.1429C9.26954 9.00034 8.44483 8.91596 8.30999 8.91596H5.73438V7.08407H7.99223C8.12703 7.08407 7.74813 6.96856 7.74813 6.82601C7.74813 6.68345 8.12703 6.56794 7.99223 6.56794L5.73438 6.56794V2.38817L8.30999 2.38814V4.21996L5.52138 4.21996C5.38657 4.21996 5.52138 4.19291 5.52138 4.33547C5.52138 4.73609 5.37864 4.73612 5.37864 4.73612L8.30999 4.73609V6.56791L7.99223 6.56794C7.85739 6.56794 7.74813 6.68345 7.74813 6.82601C7.74813 6.96856 7.85739 7.08407 7.99223 7.08407L8.30999 7.08404V9.17396V11.2639L6.00781 11.2639C5.873 11.2639 6.2519 11.3794 6.2519 11.522C6.2519 11.6645 5.873 11.78 6.00781 11.78L8.30999 11.78V13.6118L5.73438 13.6119V11.78ZM13.4029 15.1836C13.4029 15.3492 13.1566 15.3906 13 15.3906H0.909098C0.752452 15.3906 0.625 15.3492 0.625 15.1836V14.4284C0.625 14.2628 0.752452 14.2188 0.909098 14.2188H13.1187C13.2754 14.2188 13.4028 14.2628 13.4028 14.4284L13.4029 15.1836Z"/>
    </symbol>

    <symbol id="game">
        <path d="M14.5276 13.0542H10.491C12.5819 11.8431 13.9917 9.58113 13.9917 6.99578C13.9917 3.13833 10.8533 0 6.99585 0C3.13831 0 0 3.13833 0 6.99578C0 10.8534 3.13831 13.9917 6.99585 13.9917H14.5276C14.8225 13.9917 15.0625 14.2317 15.0625 14.5276C15.0625 14.8231 14.8234 15.0625 14.5276 15.0625H8C7.74109 15.0625 7.53125 15.2723 7.53125 15.5312C7.53125 15.7902 7.74109 16 8 16H14.5276C15.3326 16 16 15.3502 16 14.5266C16 13.7147 15.3395 13.0542 14.5276 13.0542ZM6.99585 13.0542C6.73364 13.0542 6.47522 13.0373 6.22168 13.0049L11.344 10.0476L11.9904 10.4207C10.8972 12.01 9.06628 13.0542 6.99585 13.0542ZM3.59802 12.0091L9.16992 8.7923L10.4065 9.5063L4.9054 12.6823C4.44031 12.5108 4.00183 12.2837 3.59802 12.0091ZM3.11646 2.34633C3.4928 2.03175 3.90771 1.76185 4.35303 1.54506V7.98041L3.11646 8.6944V2.34633ZM5.29053 1.18226C5.6875 1.06556 6.10107 0.988167 6.5271 0.955452V6.72515L5.29053 7.43914V1.18226ZM13.0542 6.99578C13.0542 7.14275 13.0486 7.28839 13.0383 7.4328L7.4646 4.21475V2.78689L12.9657 5.96294C13.0237 6.29875 13.0542 6.64373 13.0542 6.99578ZM7.4646 5.29728L12.8833 8.42572C12.7831 8.83832 12.6407 9.23469 12.4607 9.60969L7.4646 6.72515V5.29728ZM12.5861 4.66129L7.4646 1.70436V0.955452C9.77563 1.13319 11.7277 2.61342 12.5861 4.66129ZM2.17896 3.32608V9.23567L1.53101 9.60969C1.15076 8.81794 0.9375 7.93133 0.9375 6.99578C0.9375 5.61735 1.40063 4.34525 2.17896 3.32608ZM2.00134 10.4207L6.99585 7.53705L8.23242 8.25104L2.81653 11.3779C2.51306 11.0882 2.23975 10.7674 2.00134 10.4207Z"/>
    </symbol>

    <symbol id="house">
        <path d="M15.8627 7.1665L9.18872 0.492432C8.87146 0.174927 8.44934 0 8 0C7.55066 0 7.12854 0.174927 6.81152 0.49231L0.137329 7.1665C0.0493164 7.25439 0 7.37366 0 7.49805C0 7.62231 0.0494385 7.74158 0.137451 7.82959C0.137451 7.82959 0.363037 8.05493 0.639526 8.33142C1.17004 8.86206 1.90076 8.98718 2.5105 8.80786V15.5312C2.5105 15.7902 2.72034 16 2.97925 16H13.0209C13.2797 16 13.4896 15.7902 13.4896 15.5312V8.80786C14.0992 8.98718 14.8301 8.86206 15.3604 8.33142C15.637 8.05493 15.8625 7.82959 15.8625 7.82959C15.9504 7.74158 16 7.62244 16 7.49805C16 7.37366 15.9507 7.25439 15.8627 7.1665ZM12.5521 8.19421V13.0542H10.4771V10.0083C10.4771 8.64026 9.37061 7.53125 8 7.53125C6.63171 7.53125 5.52295 8.6377 5.52295 10.0083V13.0542H3.44788V8.19421L8 3.64209L12.5521 8.19421ZM3.44788 13.9917H5.52295V15.0625H3.44788V13.9917ZM6.46045 15.0625V10.0083C6.46045 9.15967 7.14636 8.46875 8 8.46875C8.85046 8.46875 9.53955 9.15649 9.53955 10.0083V15.0625H6.46045ZM10.4771 15.0625V13.9917H12.5521V15.0625H10.4771ZM14.6974 7.66858C14.3262 8.04004 13.7244 8.04053 13.3525 7.66858C13.3496 7.66565 13.3464 7.6626 13.3434 7.65967L8.33142 2.64771C8.14844 2.4646 7.85156 2.4646 7.66858 2.64771L2.65662 7.65967C2.65344 7.6626 2.65039 7.66553 2.64746 7.66858C2.27612 8.04004 1.67432 8.04065 1.30249 7.66858C1.24268 7.60864 1.18518 7.55115 1.13184 7.4978L7.47461 1.15503C7.76416 0.865112 8.23511 0.86438 8.52563 1.15515L14.8682 7.4978C14.8148 7.55115 14.7573 7.60864 14.6974 7.66858Z"/>
    </symbol>

    <sybmol>
        <g id="logo-text">
            <path d="M7.89953 10.4825C7.81892 9.51037 7.23855 8.55447 5.64255 8.47346C6.62595 8.34385 7.98013 6.07562 7.39977 4.39065C6.91613 3.02971 5.46522 3.56436 4.61079 3.82359C4.44958 5.11972 4.82037 7.50136 3.38558 7.80919C3.3211 7.12873 3.45007 5.99461 3.27273 4.81189C2.93419 2.85149 0.548244 3.75878 0.00012207 4.00181C0.209698 6.17283 0.177456 6.75609 0.177456 9.36455C0.193577 10.2556 0.0968495 11.6652 0.177456 12.4267C0.403153 14.4519 2.80522 13.9172 3.46619 13.2205C3.46619 12.3619 3.45007 10.6121 3.4017 9.63998C4.4657 9.55897 4.65916 9.8668 4.6914 12.135C4.70752 14.4033 7.38365 13.982 8.17359 13.2043C7.89953 12.3619 7.98013 11.2925 7.89953 10.4825Z"/>
            <path d="M9.29817 8.8137C9.29817 13.5122 11.7164 13.901 13.4091 13.8524C14.9728 13.8524 17.5361 13.415 17.5522 8.8137C17.5361 4.8767 15.795 3.48335 13.4574 3.48335C10.9909 3.48335 9.29817 5.00631 9.29817 8.8137ZM13.4574 6.12422C13.6348 6.12422 14.3119 5.865 14.3119 8.70028C14.3119 10.5473 14.0217 11.6004 13.4413 11.6004C12.9577 11.6004 12.5708 11.1629 12.6191 8.70028C12.6191 6.46446 13.1834 6.12422 13.4574 6.12422Z"/>
            <path d="M20.8693 6.46446C20.8693 7.38795 20.8532 8.40866 20.9015 11.5518C20.9177 12.8155 20.966 13.8524 22.4169 13.82C23.7066 13.82 24.0291 13.3016 24.1742 13.1395C24.2225 11.73 24.1258 8.65168 24.0935 6.51306C24.4482 6.51306 24.7868 6.51306 25.0931 6.49686C26.1248 6.46446 26.4795 5.8488 26.4634 4.99011C26.4473 4.01801 25.6573 3.49956 24.5611 3.49956H21.498C19.0637 3.51576 18.9025 3.51576 18.7091 3.49956C18.2577 5.41135 18.5317 6.43205 20.3857 6.46446H20.8693Z"/>
            <path d="M33.1038 3.56436C31.9753 3.45095 29.2508 3.49956 27.3646 3.58056C27.5742 5.73538 27.5903 8.50587 27.5581 10.4663C27.5903 12.3457 27.4291 13.658 29.3959 13.7876C30.6856 13.8848 31.4111 13.8848 32.5718 13.7876C34.1517 13.658 34.7965 12.7993 34.0388 10.9199C32.733 11.1143 31.5239 11.1629 30.7662 11.0171C30.7662 10.7903 30.734 10.0774 30.7662 9.89921C31.4917 9.89921 32.2816 9.8668 32.9748 9.8668C34.4096 9.8668 34.2645 7.54997 32.9587 7.54997C32.0237 7.50136 31.6045 7.59857 30.734 7.51756V6.23763C31.7174 6.15663 32.1527 6.20523 32.9748 6.23763C34.5225 6.28624 34.5225 3.8884 33.1038 3.56436Z"/>
            <path d="M38.1397 0.0324029C37.0757 0.729074 37.1402 1.78218 37.8979 2.41405C38.7523 3.02971 40.4289 2.83529 41.5574 2.33304C42.5891 1.86319 42.9922 0.79388 41.8959 0C40.2677 0.858687 39.1876 0.421242 38.1397 0.0324029ZM43.8788 4.9415C43.8788 3.9694 43.2662 3.49956 42.299 3.49956C41.1705 3.49956 40.5901 3.79119 40.2516 4.82809C39.8485 6.09182 39.252 8.03602 38.9135 9.38075C38.9135 8.7975 39.0102 5.36275 39.0102 4.9415C39.0102 3.87219 38.446 3.49956 37.4948 3.49956C36.8339 3.49956 35.657 3.9208 35.657 3.9208C35.7537 4.64987 35.8343 5.07112 35.8505 6.02701C35.8827 7.03152 35.8505 8.63548 35.9472 11.811C35.9955 13.3664 36.4953 13.8848 37.7528 13.8362C40.0097 13.7552 40.1548 9.57517 40.7674 8.05222C40.7674 8.74889 40.7352 11.1629 40.7352 11.973C40.7352 13.0747 40.8319 13.8362 42.1055 13.8362C43.2017 13.8362 43.8305 13.4636 44.0239 13.1233C43.895 12.6373 43.8466 9.68859 43.8466 7.37175C43.8466 6.35105 43.8627 5.45996 43.8788 4.9415Z"/>
            <path d="M53.2184 10.4825C53.1378 9.51037 52.5575 8.55447 50.9615 8.47346C51.9449 8.34385 53.299 6.07562 52.7187 4.39065C52.2351 3.02971 50.7841 3.56436 49.9297 3.82359C49.7685 5.11972 50.1393 7.50136 48.7045 7.80919C48.64 7.12873 48.769 5.99461 48.5917 4.81189C48.2531 2.85149 45.8672 3.75878 45.319 4.00181C45.5286 6.17283 45.4964 6.75609 45.4964 9.36455C45.5125 10.2556 45.4158 11.6652 45.4964 12.4267C45.7221 14.4519 48.1241 13.9172 48.7851 13.2205C48.7851 12.3619 48.769 10.6121 48.7206 9.63998C49.7846 9.55897 49.9781 9.8668 50.0103 12.135C50.0264 14.4033 52.7026 13.982 53.4925 13.2043C53.2184 12.3619 53.299 11.2925 53.2184 10.4825Z"/>
            <path d="M63.0001 13.1395C62.7744 12.5077 62.7905 12.1998 62.7422 11.2925C62.6132 8.92711 62.581 6.64268 61.8072 5.07112C60.5013 2.75428 57.132 3.38614 55.5037 4.55266C55.3587 7.35555 54.875 8.50587 54.5687 11.6328C54.343 13.9172 56.2453 14.5491 58.0187 13.4312C58.0187 13.1557 58.0187 12.1998 58.0993 11.973C58.3088 11.973 59.0988 11.9892 59.4051 11.9892C59.4051 11.9892 59.3245 12.9289 59.7759 13.4312C60.5819 14.3547 62.4359 14.0792 63.0001 13.1395ZM58.2121 9.94781C58.325 9.07292 58.325 7.25834 58.3733 6.8695C58.4539 6.80469 59.0021 6.8371 59.0665 6.9181C59.26 7.67958 59.26 9.07292 59.3084 9.94781H58.2121Z"/>
        </g>
    </symbol>

</svg>